<?xml version="1.0" encoding="utf-8"?>
<?xml-stylesheet type="text/xsl" href="rss1.xsl"?>
<rss version="2.0" xmlns:atom="http://www.w3.org/2005/Atom" xmlns:content="http://purl.org/rss/1.0/modules/content/" xmlns:dc="http://purl.org/dc/elements/1.1/" xmlns:media="http://search.yahoo.com/mrss/">
<channel>
 <title>Getty</title>
 <link>http://www.gettyimg.com/</link>
 <atom:link href="http://www.gettyimg.com/" rel="self" type="application/rss+xml" />

 
                <item>
                <title><![CDATA[【Cinema Center】SERIES - Blaze and the Monster Machines - Season 6 - 1080p Amazon WEB-DL DDP5.1 H.264-LAZY]]></title>
                <link><![CDATA[https://sharemania.us/threads/blaze-and-the-monster-machines-season-6-1080p-amazon-web-dl-ddp5-1-h-264-lazy.234116/]]></link>
                <description><![CDATA[<article>
<blockquote class="messageText SelectQuoteContainer ugc baseHtml">
Blaze and the Monster Machines:<img src="https://i.imgur.com/EIkqnq3.jpg" class="bbCodeImage LbImage" alt="[​IMG]" data-url="https://i.imgur.com/EIkqnq3.jpg" style=""><br>
<br>
<div class="bbCodeBlock bbCodeQuote">
<aside>
<blockquote class="quoteContainer"><div class="quote"><i><b>Synopsis:</b></i><br>
Blaze and the Monster Machines is a CG interactive series for preschoolers featuring Blaze, the world's most amazing monster truck, and his driver and best friend, 8-year-old AJ. The series follows their adventures in Axle City--a town populated with big-wheeled vehicles known as monster machines.</div><div class="quoteExpand">Click to expand...</div></blockquote>
</aside>
</div>
<div class="ToggleTriggerAnchor bbCodeSpoilerContainer">
<button type="button" class="button bbCodeSpoilerButton ToggleTrigger Tooltip JsOnly" data-target="> .SpoilerTarget"><span>Spoiler: <span class="SpoilerTitle">MediaInfo</span></span></button>
<div class="SpoilerTarget bbCodeSpoilerText">General<br>
Unique ID : 109058384966847984182657527591321555524 (0x520BE184971938679677FBA425D55244)<br>
Complete name : Blaze.and.the.Monster.Machines.S06E01.Big.Rig.to.the.Rescue.1080p.AMZN.WEB-DL.DDP5.1.H.264-LAZY.mkv<br>
Format : Matroska<br>
Format version : Version 4<br>
File size : 1.08 GiB<br>
Duration : 21 min 35 s<br>
Overall bit rate : 7 164 kb/s<br>
Frame rate : 23.976 FPS<br>
Encoded date : 2023-12-05 19:52:39 UTC<br>
Writing application : mkvmerge v81.0 ('Milliontown') 64-bit<br>
Writing library : libebml v1.4.4 + libmatroska v1.7.1<br>
<br>
Video<br>
ID : 1<br>
Format : AVC<br>
Format/Info : Advanced Video Codec<br>
Format profile : High@L4<br>
Format settings : CABAC / 4 Ref Frames<br>
Format settings, CABAC : Yes<br>
Format settings, Reference frames : 4 frames<br>
Codec ID : V_MPEG4/ISO/AVC<br>
Duration : 21 min 35 s<br>
Bit rate mode : Constant<br>
Bit rate : 6 522 kb/s<br>
Nominal bit rate : 10 000 kb/s<br>
Width : 1 920 pixels<br>
Height : 1 080 pixels<br>
Display aspect ratio : 16:9<br>
Frame rate mode : Constant<br>
Frame rate : 23.976 (24000/1001) FPS<br>
Color space : YUV<br>
Chroma subsampling : 4:2:0<br>
Bit depth : 8 bits<br>
Scan type : Progressive<br>
Bits/(Pixel*Frame) : 0.131<br>
Stream size : 1 007 MiB (91%)<br>
Default : Yes<br>
Forced : No<br>
Color range : Limited<br>
Color primaries : BT.709<br>
Transfer characteristics : BT.709<br>
Matrix coefficients : BT.709<br>
<br>
Audio<br>
ID : 2<br>
Format : E-AC-3<br>
Format/Info : Enhanced AC-3<br>
Commercial name : Dolby Digital Plus<br>
Codec ID : A_EAC3<br>
Duration : 21 min 35 s<br>
Bit rate mode : Constant<br>
Bit rate : 640 kb/s<br>
Channel(s) : 6 channels<br>
Channel layout : L R C LFE Ls Rs<br>
Sampling rate : 48.0 kHz<br>
Frame rate : 31.250 FPS (1536 SPF)<br>
Compression mode : Lossy<br>
Stream size : 98.8 MiB (9%)<br>
Language : English<br>
Service kind : Complete Main<br>
Default : Yes<br>
Forced : No<br>
<br>
Text<br>
ID : 3<br>
Format : UTF-8<br>
Codec ID : S_TEXT/UTF8<br>
Codec ID/Info : UTF-8 Plain Text<br>
Duration : 21 min 21 s<br>
Bit rate : 83 b/s<br>
Frame rate : 0.378 FPS<br>
Count of elements : 484<br>
Stream size : 13.0 KiB (0%)<br>
Title : SDH<br>
Language : English<br>
Default : No<br>
Forced : No</div>
</div><br>
Screenshots:<br>
<img src="https://i.imgur.com/hLUGlt4.jpg" class="bbCodeImage LbImage" alt="[​IMG]" data-url="https://i.imgur.com/hLUGlt4.jpg" style=""> <br>
<br>
<div class="bbCodeBlock bbCodeVfcHH HiddenContent">
<div class="attribution type">Hidden Content:</div>
<blockquote>You must either reply or click 'Like' to see the hidden information contained here.</blockquote>
</div>
<div class="messageTextEndMarker">&nbsp;</div>
</blockquote>
</article>]]></description>
                <author><![CDATA[LazyRips]]></author>
                </item>

                
                <item>
                <title><![CDATA[【Requests】[REQ AUD] - Robert Wyatt - Shleep [Qobuz CD 16bits/44.1kHz]]]></title>
                <link><![CDATA[https://sharemania.us/threads/robert-wyatt-shleep-qobuz-cd-16bits-44-1khz.234115/]]></link>
                <description><![CDATA[<article>
<blockquote class="messageText SelectQuoteContainer ugc baseHtml">
Hi, if anyone could make this Qobuz album available I would greatly appreciate it!<br>
<br>
<a href="https://www.qobuz.com/gb-en/album/shleep-robert-wyatt/5034202204558" target="_blank" class="externalLink" rel="nofollow">https://www.qobuz.com/gb-en/album/shleep-robert-wyatt/5034202204558</a>
<div class="messageTextEndMarker">&nbsp;</div>
</blockquote>
</article>]]></description>
                <author><![CDATA[C43G0N4R4]]></author>
                </item>

                
                <item>
                <title><![CDATA[【Requests】[REQ VID] - Unfabulous Season 1 with Emma Roberts]]></title>
                <link><![CDATA[https://sharemania.us/threads/unfabulous-season-1-with-emma-roberts.234117/]]></link>
                <description><![CDATA[<article>
<blockquote class="messageText SelectQuoteContainer ugc baseHtml">
Loved this show. Hoping to see in 720p or 1080p
<div class="messageTextEndMarker">&nbsp;</div>
</blockquote>
</article>]]></description>
                <author><![CDATA[pdub]]></author>
                </item>

                </channel></rss>